# xmcd
#
# Track frame offsets:
#	150
#	13302
#	30171
#	42697
#	52957
#	71499
#	81919
#	91626
#	105251
#	122541
#	138189
#	152319
#	166059
#	179147
#	191478
#	202841
#	216356
#	227309
#	238679
#	252127
#
# Disc length: 3541
#
# Revision: 1
# Processed by: cddbd v1.5.1PL0 Copyright (c) Steve Scherf et al.
# Submitted via: dBpowerAMP V4.0
# Normalized: r0:TRMNUM
#
DISCID=f50dd314
DTITLE=Vários - As Melhores do Rasqueado - Vol. 1
DYEAR=1900
DGENRE=Country
TTITLE0=Love, Love Rasqueado
TTITLE1=Rasqueado Cuiabano
TTITLE2=Festa de Santo
TTITLE3=Casa de Bambem
TTITLE4=Pixé
TTITLE5=Pombo Correio
TTITLE6=Engenho Novo
TTITLE7=Moreninha do CPA
TTITLE8=Feirinha da Mandioca
TTITLE9=Furundum
TTITLE10=Coração Cuiabano
TTITLE11=Rio Cuiabá
TTITLE12=Baile na Varginha
TTITLE13=Que Sabe D'Outra
TTITLE14=No Balanço da Canoa
TTITLE15=Loirinha Matogrossense
TTITLE16=Festa na Chapada
TTITLE17=Caxinbóco
TTITLE18=O Sol Tá Quente
TTITLE19=Forrobodó
EXTD=
EXTT0=
EXTT1=
EXTT2=
EXTT3=
EXTT4=
EXTT5=
EXTT6=
EXTT7=
EXTT8=
EXTT9=
EXTT10=
EXTT11=
EXTT12=
EXTT13=
EXTT14=
EXTT15=
EXTT16=
EXTT17=
EXTT18=
EXTT19=
PLAYORDER=
